<svg xmlns="http://www.w3.org/2000/svg" viewBox="0 0 137.15 40.04"><defs><style>.cls-1{fill:#003188;}</style></defs><g id="Ebene_2" data-name="Ebene 2"><g id="Ebene_2-2" data-name="Ebene 2"><path d="M81.94,36.25l-1.19,3.61H79.22L83.11,28.4h1.78L88.8,39.86H87.22L86,36.25Zm3.75-1.15-1.12-3.3c-.25-.75-.42-1.43-.59-2.09h0c-.17.68-.35,1.38-.58,2.07L82.24,35.1Z"/><path d="M92.05,29.32a.93.93,0,0,1-1.85,0,.91.91,0,0,1,.93-.94A.89.89,0,0,1,92.05,29.32ZM90.39,39.86V31.63h1.49v8.23Z"/><path d="M94.36,34.2c0-1,0-1.81-.06-2.57h1.3l.06,1.61h.06A2.48,2.48,0,0,1,98,31.44a1.88,1.88,0,0,1,.43,0V32.9a2.59,2.59,0,0,0-.51,0,2.1,2.1,0,0,0-2,1.92,4.88,4.88,0,0,0-.07.7v4.39H94.36Z"/><path d="M103.58,28.4h1.48V38.62H110v1.24h-6.37Z"/><path d="M113.21,29.32a.88.88,0,0,1-.95.92.89.89,0,0,1-.9-.92.91.91,0,0,1,.94-.94A.88.88,0,0,1,113.21,29.32Zm-1.66,10.54V31.63H113v8.23Z"/><path d="M115.53,33.86c0-.85,0-1.55-.07-2.23h1.31l.07,1.33h0a2.82,2.82,0,0,1,2.58-1.52,2.44,2.44,0,0,1,2.33,1.65h0a3.5,3.5,0,0,1,.92-1.07,2.83,2.83,0,0,1,1.82-.58c1.09,0,2.7.72,2.7,3.57v4.85h-1.46V35.2c0-1.58-.58-2.53-1.78-2.53A1.94,1.94,0,0,0,122.26,34a2.34,2.34,0,0,0-.12.74v5.09h-1.46V34.93c0-1.31-.58-2.26-1.72-2.26a2,2,0,0,0-1.85,1.49,2,2,0,0,0-.12.73v5h-1.46Z"/><path d="M137.15,35.68a4,4,0,0,1-4.1,4.36,3.91,3.91,0,0,1-3.94-4.23,4,4,0,0,1,4.08-4.37A3.9,3.9,0,0,1,137.15,35.68Zm-6.53.08c0,1.8,1,3.16,2.5,3.16s2.5-1.34,2.5-3.19c0-1.4-.7-3.17-2.47-3.17S130.62,34.2,130.62,35.76Z"/><path d="M18.14,3.82A29.67,29.67,0,0,1,23,3.45c2.5,0,4.33.58,5.49,1.62a5.27,5.27,0,0,1,1.71,4.09,5.8,5.8,0,0,1-1.51,4.18,8.12,8.12,0,0,1-6,2.15,8.42,8.42,0,0,1-2-.18v7.83H18.14Zm2.52,9.43a8.26,8.26,0,0,0,2.09.2c3.05,0,4.9-1.47,4.9-4.17S25.83,5.45,23,5.45a11.09,11.09,0,0,0-2.38.2Z"/><path d="M34.18,16.59c0,3.45,2.26,4.87,4.81,4.87a9.36,9.36,0,0,0,3.89-.72l.43,1.82a11.28,11.28,0,0,1-4.67.87c-4.32,0-6.9-2.84-6.9-7.07s2.49-7.58,6.58-7.58c4.59,0,5.81,4,5.81,6.62A9.35,9.35,0,0,1,44,16.59Zm7.48-1.83c0-1.62-.67-4.15-3.54-4.15-2.58,0-3.71,2.38-3.92,4.15Z"/><path d="M55.06,23.14l-.21-1.77h-.08a5.22,5.22,0,0,1-4.3,2.09,4,4,0,0,1-4.29-4c0-3.39,3-5.25,8.44-5.22v-.29c0-1.16-.32-3.25-3.19-3.25a7,7,0,0,0-3.65,1L47.2,10a8.74,8.74,0,0,1,4.61-1.25c4.29,0,5.33,2.93,5.33,5.75v5.25a19,19,0,0,0,.24,3.36ZM54.68,16c-2.79-.06-6,.43-6,3.16a2.27,2.27,0,0,0,2.41,2.44,3.48,3.48,0,0,0,3.39-2.35,2.58,2.58,0,0,0,.15-.82Z"/><path d="M61.26,13.48c0-1.65,0-3.07-.12-4.38h2.24l.09,2.76h.11a4.22,4.22,0,0,1,3.89-3.08,2.63,2.63,0,0,1,.72.09v2.41a3.69,3.69,0,0,0-.87-.09c-1.8,0-3.07,1.37-3.42,3.28a6.93,6.93,0,0,0-.12,1.19v7.48H61.26Z"/><path d="M70.39,20.53a6.65,6.65,0,0,0,3.37,1c1.86,0,2.73-.93,2.73-2.09s-.73-1.89-2.61-2.58c-2.53-.9-3.72-2.29-3.72-4,0-2.26,1.83-4.12,4.85-4.12a7,7,0,0,1,3.45.87l-.64,1.86A5.45,5.45,0,0,0,75,10.7c-1.51,0-2.35.87-2.35,1.91s.84,1.69,2.67,2.38c2.43.93,3.68,2.15,3.68,4.24,0,2.46-1.91,4.2-5.25,4.2a8,8,0,0,1-3.94-.95Z"/><path d="M94.93,16c0,5.19-3.6,7.45-7,7.45-3.8,0-6.73-2.78-6.73-7.22,0-4.7,3.08-7.46,7-7.46C92.2,8.78,94.93,11.71,94.93,16Zm-11.14.14c0,3.08,1.77,5.4,4.27,5.4s4.26-2.29,4.26-5.46c0-2.37-1.19-5.39-4.21-5.39S83.79,13.48,83.79,16.15Z"/><path d="M98.15,12.9c0-1.45,0-2.64-.12-3.8h2.26l.15,2.32h.06a5.16,5.16,0,0,1,4.64-2.64c1.94,0,5,1.16,5,6v8.38h-2.55V15.05c0-2.26-.85-4.15-3.25-4.15a3.63,3.63,0,0,0-3.43,2.61,3.88,3.88,0,0,0-.17,1.19v8.44H98.15Z"/><path class="cls-1" d="M7.22,0C5.42.75,2.12,2.47.69,5.87-2.17,12.7,4.68,20.3,6.22,22a21.65,21.65,0,0,0,9,6,20.4,20.4,0,0,0,7,1h47V26l6.5,6.5L69.22,39V36l-46.74-.69c-1.23.07-10.25.42-16.26-6.31a21.48,21.48,0,0,1-5-12,21.05,21.05,0,0,1,0-4h0a8.91,8.91,0,0,1,2-4,9.55,9.55,0,0,1,7-3Z"/></g></g></svg>